<svg id="Layer_1" data-name="Layer 1" xmlns="http://www.w3.org/2000/svg" viewBox="0 0 600 800"><defs><style>.cls-1{fill:#100cbf;}.cls-2{fill:#fff;}.cls-3{fill:red;}.cls-4{fill:gold;}</style></defs><path class="cls-1" d="M300,0C134.31,0,0,134.31,0,300c0,71,31.27,133.39,65.89,187.5l213.71,302a25,25,0,0,0,40.8,0l213.71-302C567.19,443,600,371,600,300,600,134.31,465.69,0,300,0Zm.53,538C167.06,538,58.85,429.8,58.85,296.32S167.06,54.68,300.53,54.68,542.21,162.89,542.21,296.36,434,538,300.53,538Z"/><path class="cls-2" d="M300.53,54.68c-133.47,0-241.68,108.21-241.68,241.68S167.06,538,300.53,538,542.21,429.8,542.21,296.32,434,54.68,300.53,54.68ZM300,475A175,175,0,1,1,475,300,175,175,0,0,1,300,475Z"/><circle class="cls-2" cx="301.19" cy="300.83" r="180.26"/><path class="cls-1" d="M166.69,270c1.41-3.06,4.07-8.11,8.79-16.94,2.16-4.07,4.58-8.57,7.05-13.18H160.85a15.06,15.06,0,1,0,0,30.12Z"/><path class="cls-1" d="M442.64,239.83H421c2.47,4.61,4.88,9.11,7,13.18,4.71,8.83,7.38,13.88,8.79,16.94h5.84a15.06,15.06,0,1,0,0-30.12Z"/><path d="M169.78,400.5a20.3,20.3,0,0,0,40.6,0V381.29h-40.6Z"/><path d="M393.09,400.5a20.31,20.31,0,0,0,40.62,0V381.29H393.09Z"/><path class="cls-1" d="M444.22,287.16c-.89-1-13.39-13.45-13.39-13.45,0-1.45-37.59-70.58-39.44-74.37-4.87-10.17-16.94-16.27-28.69-16.27H240.76c-11.74,0-23.76,6.1-28.68,16.27-1.85,3.83-40.27,74.37-39.4,74.37h0s-12.51,12.46-13.45,13.45a17.54,17.54,0,0,0-4,6.49c-1.05,3.13-.91,6-.91,8.94v5.15c0,.73,0,1.43,0,2.16v50.71c0,9.5,1.85,14.65,14.25,14.65H434.86c12.4,0,14.29-5.15,14.29-14.65v-58c0-2.94.15-5.81-.9-8.94A17.39,17.39,0,0,0,444.22,287.16ZM239.43,346.87a8.2,8.2,0,0,1-7,3l-42.19-3.1a8.18,8.18,0,0,1-7.45-6.59L180,326.13a8.21,8.21,0,0,1,8.8-9.8l41.08,3.79A8.23,8.23,0,0,1,237,326l3.94,13.4A8.21,8.21,0,0,1,239.43,346.87Zm96.91,10.6a3,3,0,0,1-3,3H270.18a3,3,0,0,1-3-3V329.66a3,3,0,0,1,3-3h63.15a3,3,0,0,1,3,3v27.81Zm87.16-31.34-2.82,14.07a8.19,8.19,0,0,1-7.45,6.59L371,349.89a8.2,8.2,0,0,1-8.49-10.5L366.49,326a8.22,8.22,0,0,1,7.12-5.86l41.09-3.79a8.22,8.22,0,0,1,8.8,9.8Zm16.19-24.27H366.45l-64.72-18.48-64.66,18.48H163.83v-.27a15.36,15.36,0,0,1,.44-5,8.38,8.38,0,0,1,1.81-2.9c.74-.76,8.54-8.54,13.29-13.27a9.44,9.44,0,0,0,2.37-3.94c2.45-5.22,18.6-35.22,27.4-51.59,7.26-13.49,10.78-20,11.45-21.42,3.12-6.45,11.42-10.94,20.17-10.94H362.7c8.65,0,17.14,4.58,20.18,11,.67,1.37,4.06,7.66,11,20.62,9.09,16.89,25.85,48,27.94,52.64a9.6,9.6,0,0,0,2.29,3.67c5.79,5.75,12.33,12.31,13.17,13.21a8.34,8.34,0,0,1,2,3,15.91,15.91,0,0,1,.42,5v.26Z"/><path class="cls-1" d="M369.06,212.47c-2.38-4.57-9.14-7.87-16.09-7.87H250.51c-6.95,0-13.72,3.3-16.09,7.87C233,215.15,209.47,256,209.47,256c-2.17,3.76-.27,10.76,6.17,10.76H387.85c6.44,0,8.34-7,6.17-10.76C394,256,370.47,215.15,369.06,212.47Z"/><path class="cls-3" d="M230.61,176h45.62V145.73h-27a18.8,18.8,0,0,0-17.33,11.48l-5.32,12.59a4.43,4.43,0,0,0,4.07,6.15Z"/><path class="cls-3" d="M373.21,174a4.42,4.42,0,0,0,.38-4.17l-5.33-12.59a18.78,18.78,0,0,0-17.32-11.48H323.89V176h45.63A4.46,4.46,0,0,0,373.21,174Z"/><rect class="cls-4" x="283.2" y="145.73" width="33.72" height="30.21"/></svg>